# xmcd
#
# Track frame offsets: 
#        150
#        15070
#        32740
#        50193
#        71153
#        87024
#        101789
#        120518
#
# Disc length: 1840 seconds
#
# Revision: 0
# Processed by: cddbd v1.5.2PL0 Copyright (c) Steve Scherf et al.
# Submitted via: ExactAudioCopy v1.0b1
#
DISCID=60072e08
DTITLE=ChocolateClay - ChocolateClay
DYEAR=1977
DGENRE=Soul
TTITLE0=My Uncle Funky
TTITLE1=I Ain't Got Nothin' To Say
TTITLE2=I Ain't Mad At You
TTITLE3=Free (I'll Always Be)
TTITLE4=Two Different Worlds
TTITLE5=Sweet Mary
TTITLE6=The Cream Is Rising To The Top
TTITLE7=Please Say You'll Come Again
EXTD=
EXTT0=
EXTT1=
EXTT2=
EXTT3=
EXTT4=
EXTT5=
EXTT6=
EXTT7=
PLAYORDER=
